<?xml version="1.0" standalone="no"?>
<!DOCTYPE svg PUBLIC "-//W3C//DTD SVG 20010904//EN"
 "http://www.w3.org/TR/2001/REC-SVG-20010904/DTD/svg10.dtd">
<svg version="1.0" xmlns="http://www.w3.org/2000/svg"
 width="600.000000pt" height="600.000000pt" viewBox="0 0 600.000000 600.000000"
 preserveAspectRatio="xMidYMid meet">
<metadata>
Created by potrace 1.14, written by Peter Selinger 2001-2017
</metadata>
<g transform="translate(0.000000,600.000000) scale(0.100000,-0.100000)"
fill="#000000" stroke="none">
<path d="M3703 5980 c-196 -28 -412 -125 -612 -275 -69 -52 -122 -83 -186
-108 -294 -113 -559 -290 -824 -550 -626 -614 -1034 -1496 -1143 -2472 -14
-130 -15 -612 0 -705 9 -61 10 -55 11 81 3 339 65 724 178 1094 313 1031 979
1852 1691 2085 254 83 492 88 709 15 233 -79 445 -246 596 -473 115 -171 231
-467 281 -713 43 -216 51 -315 51 -629 -1 -252 -4 -317 -24 -450 -61 -420
-147 -732 -306 -1115 -226 -544 -576 -1027 -975 -1344 -266 -211 -589 -351
-853 -370 l-102 -7 65 -13 c36 -7 139 -15 230 -18 138 -4 185 -2 287 16 309
52 646 211 932 439 129 102 396 371 504 507 446 561 755 1305 852 2055 38 287
36 703 -5 980 -54 374 -179 731 -348 990 -48 74 -57 97 -73 179 -94 482 -390
786 -784 805 -49 3 -118 1 -152 -4z"/>
<path d="M2232 3809 c-278 -36 -560 -200 -733 -428 -69 -91 -153 -266 -185
-386 -25 -91 -27 -116 -27 -275 0 -159 2 -184 27 -275 54 -199 156 -373 299
-512 199 -193 441 -298 717 -310 203 -9 377 26 549 109 231 113 443 341 532
573 64 165 73 214 73 410 1 157 -2 191 -22 265 -53 194 -140 353 -268 490
-244 260 -602 386 -962 339z"/>
</g>
</svg>
