<?xml version="1.0" standalone="no"?>
<!DOCTYPE svg PUBLIC "-//W3C//DTD SVG 20010904//EN"
 "http://www.w3.org/TR/2001/REC-SVG-20010904/DTD/svg10.dtd">
<svg version="1.0" xmlns="http://www.w3.org/2000/svg"
 width="700.000000pt" height="700.000000pt" viewBox="0 0 700.000000 700.000000"
 preserveAspectRatio="xMidYMid meet">
<metadata>
Created by potrace 1.14, written by Peter Selinger 2001-2017
</metadata>
<g transform="translate(0.000000,700.000000) scale(0.100000,-0.100000)"
fill="#000000" stroke="none">
<path d="M3775 6869 c-232 -17 -530 -149 -748 -331 -30 -26 -85 -55 -147 -79
-680 -264 -1283 -866 -1698 -1695 -334 -668 -514 -1459 -487 -2149 10 -265 22
-343 24 -160 8 804 288 1699 746 2385 132 198 248 342 405 504 328 338 657
542 1018 634 98 24 124 27 297 27 177 0 197 -2 290 -28 366 -101 646 -354 841
-761 105 -219 171 -444 216 -736 20 -129 22 -182 23 -490 0 -300 -3 -366 -22
-505 -147 -1071 -646 -2060 -1333 -2639 -325 -275 -683 -441 -1000 -463 l-95
-7 55 -14 c87 -24 479 -22 590 1 361 77 686 236 1010 493 127 101 432 412 538
549 525 677 846 1491 937 2370 22 210 22 599 1 790 -57 503 -191 912 -410
1250 -45 69 -55 93 -70 175 -88 460 -347 779 -700 860 -100 23 -165 27 -281
19z"/>
<path d="M2168 4500 c-233 -27 -452 -116 -630 -259 -225 -179 -370 -414 -434
-703 -24 -105 -24 -356 0 -466 93 -435 397 -778 808 -913 638 -208 1325 140
1533 777 137 420 18 907 -299 1219 -256 251 -631 384 -978 345z"/>
</g>
</svg>
