<?xml version="1.0" standalone="no"?>
<!DOCTYPE svg PUBLIC "-//W3C//DTD SVG 20010904//EN"
 "http://www.w3.org/TR/2001/REC-SVG-20010904/DTD/svg10.dtd">
<svg version="1.0" xmlns="http://www.w3.org/2000/svg"
 width="600.000000pt" height="600.000000pt" viewBox="0 0 600.000000 600.000000"
 preserveAspectRatio="xMidYMid meet">
<metadata>
Created by potrace 1.14, written by Peter Selinger 2001-2017
</metadata>
<g transform="translate(0.000000,600.000000) scale(0.100000,-0.100000)"
fill="#000000" stroke="none">
<path d="M3715 5980 c-204 -26 -476 -151 -658 -303 -30 -25 -85 -54 -150 -79
-202 -78 -398 -192 -599 -348 -113 -88 -395 -371 -501 -504 -464 -584 -773
-1347 -862 -2131 -20 -170 -25 -573 -10 -700 9 -78 10 -75 16 110 20 567 173
1153 440 1687 399 797 987 1338 1589 1464 103 22 327 25 415 6 148 -32 296
-96 415 -179 93 -66 237 -215 302 -314 167 -252 284 -590 330 -949 20 -161 17
-681 -5 -835 -60 -414 -135 -701 -277 -1060 -217 -547 -539 -1020 -925 -1354
-305 -264 -634 -419 -935 -440 l-95 -7 75 -14 c121 -24 430 -19 553 8 610 135
1192 598 1632 1297 86 135 266 491 324 640 105 266 208 633 249 885 43 260 47
319 47 655 0 295 -3 346 -24 485 -61 405 -174 726 -361 1020 -36 57 -50 91
-59 142 -42 250 -154 474 -310 621 -164 154 -386 225 -616 197z"/>
<path d="M2230 3808 c-92 -11 -294 -77 -375 -123 -413 -231 -631 -673 -560
-1135 53 -347 277 -657 590 -813 548 -273 1215 -53 1492 493 148 290 149 662
4 965 -207 432 -661 674 -1151 613z"/>
</g>
</svg>
